# xmcd
#
# Track frame offsets:
#	150
#	15527
#	31285
#	48902
#	63227
#	75980
#
# Disc length: 1181
#
# Revision: 2
# Processed by: cddbd v1.5.1PL0 Copyright (c) Steve Scherf et al.
# Submitted via: uFREEDB 1.6.0
# Normalized: r0:TDELIM( - ),TSWAP
#
DISCID=38049b06
DTITLE=Various Artist - Macountry - CD 1
DYEAR=1993
DGENRE=Country
TTITLE0=Jamie O'Hara - What's A Good Ol' Boy To Do
TTITLE1=Tanya Tucker - Soon
TTITLE2=Stephen Bruton - Too Many Memories
TTITLE3=Emmylou Harris - High Powered Love
TTITLE4=Pirates Of The Mssissippi - Dream You
TTITLE5=Shania Twain - You Lay A Whole Lot Of Love On Me
EXTD=
EXTT0=
EXTT1=
EXTT2=
EXTT3=
EXTT4=
EXTT5=
PLAYORDER=
